#!OML:ASF H:\Terrain\Patient Classification 1\Takeo\Monday\TakeoMonday.ASF
:FULLY-SPECIFIED
:DEGREES
985
root 18.2659 17.5485 -1.45004 -16.6237 -76.5368 15.7649
lowerback 7.71453 4.81888 3.22218
upperback 3.30612 6.573 1.45653
thorax -0.69138 3.26826 -0.816254
lowerneck -8.65345 8.50033 3.81355
upperneck 4.85085 11.0711 -2.20052
head 3.46514 5.47755 -0.723054
rclavicle 2.20651e-014 -1.27222e-014
rhumerus 13.0243 32.9967 -43.6876
rradius 83.5639
rwrist -22.8252
rhand -37.8726 25.3514
rfingers 7.12502
rthumb -10.9164 -4.34483
lclavicle 2.20651e-014 -1.27222e-014
lhumerus -17.8815 -2.74304 81.8068
lradius 70.7737
lwrist 18.5555
lhand -24.8062 19.9632
lfingers 7.12502
lthumb 1.69872 49.9361
rfemur -6.60894 -9.65816 7.60755
rtibia 30.0448
rfoot -15.4243 -19.5052
rtoes -9.65966
lfemur -10.4312 12.5449 -16.8668
ltibia 28.1437
lfoot -14.3893 22.4941
ltoes 8.6243
986
root 18.2751 17.552 -1.49321 -18.9636 -77.4164 18.1138
lowerback 7.96007 4.84785 3.14111
upperback 3.28868 6.61377 1.36178
thorax -0.841048 3.28547 -0.895706
lowerneck -8.53097 8.73395 4.0409
upperneck 5.16279 11.4176 -2.78576
head 3.62273 5.63082 -0.922537
rclavicle -3.73715e-014 -2.06736e-014
rhumerus 11.9121 31.6545 -43.5265
rradius 83.4118
rwrist -22.3698
rhand -38.428 25.2518
rfingers 7.12502
rthumb -11.452 -4.41543
lclavicle -3.73715e-014 -2.06736e-014
lhumerus -18.0428 -2.78815 81.7817
lradius 70.3048
lwrist 18.3098
lhand -24.4634 20.149
lfingers 7.12502
lthumb 2.02979 50.1191
rfemur -7.1513 -9.00943 7.52394
rtibia 30.385
rfoot -15.523 -19.1022
rtoes -9.11691
lfemur -10.0164 12.6135 -16.9555
ltibia 27.647
lfoot -14.6193 23.3136
ltoes 9.10334
987
root 18.2824 17.5533 -1.53965 -21.8928 -78.4127 21.0125
lowerback 8.23915 4.79629 2.91132
upperback 3.27129 6.53732 1.34163
thorax -1.03909 3.24149 -0.812799
lowerneck -7.99922 9.13322 3.89732
upperneck 4.92565 11.9904 -2.87491
head 3.45396 5.91528 -0.919216
rclavicle 2.20651e-014 4.77083e-015
rhumerus 11.1786 30.8506 -42.9008
rradius 83.6112
rwrist -22.3934
rhand -38.8219 25.3991
rfingers 7.12502
rthumb -11.8319 -4.24662
lclavicle 2.20651e-014 4.77083e-015
lhumerus -18.4541 -2.41716 81.7397
lradius 69.9752
lwrist 18.2192
lhand -25.0679 19.9903
lfingers 7.12502
lthumb 1.44599 49.9651
rfemur -7.67432 -8.27814 7.46828
rtibia 30.688
rfoot -15.7061 -18.5922
rtoes -8.53041
lfemur -9.51975 12.6886 -16.9988
ltibia 27.1766
lfoot -15.3962 23.9941
ltoes 10.3101
988
root 18.2857 17.5667 -1.58533 -24.6049 -79.2844 23.782
lowerback 8.35537 4.73525 2.78389
upperback 3.30403 6.4465 1.27986
thorax -1.07919 3.19441 -0.807866
lowerneck -7.85128 9.48566 3.99065
upperneck 4.71697 12.4671 -3.07278
head 3.39313 6.14819 -0.977866
rclavicle 5.1684e-015 -2.8625e-014
rhumerus 10.4247 29.765 -42.5736
rradius 83.7075
rwrist -22.253
rhand -38.8343 26.1212
rfingers 7.12502
rthumb -11.8439 -3.52381
lclavicle 5.1684e-015 -2.8625e-014
lhumerus -18.6916 -2.40704 81.7326
lradius 69.7066
lwrist 18.5993
lhand -26.2112 19.5547
lfingers 7.12502
lthumb 0.341727 49.5342
rfemur -8.17085 -7.97444 7.49877
rtibia 30.8987
rfoot -15.631 -18.1227
rtoes -8.90913
lfemur -9.19392 12.9842 -16.994
ltibia 26.7777
lfoot -15.5076 24.4735
ltoes 10.9969
989
root 18.2879 17.583 -1.62189 -27.4523 -79.9677 26.8074
lowerback 8.25017 4.60608 2.75374
upperback 3.39755 6.26091 1.04261
thorax -0.90705 3.10622 -1.00305
lowerneck -8.17592 9.82967 5.11261
upperneck 4.84082 12.8743 -4.07406
head 3.69207 6.32674 -1.43285
rclavicle 1.76918e-014 -1.59028e-015
rhumerus 9.71591 28.5515 -42.0347
rradius 84.0505
rwrist -22.2857
rhand -39.0142 26.6565
rfingers 7.12502
rthumb -12.0174 -2.9785
lclavicle 1.76918e-014 -1.59028e-015
lhumerus -18.7014 -2.70068 81.5071
lradius 69.5722
lwrist 19.6683
lhand -27.0466 19.1233
lfingers 7.12502
lthumb -0.465104 49.1025
rfemur -8.68588 -8.03892 7.41926
rtibia 31.0795
rfoot -15.5348 -17.3957
rtoes -9.31543
lfemur -9.08108 13.327 -17.0989
ltibia 26.427
lfoot -15.1088 25.0817
ltoes 11.1742
